<svg xmlns="http://www.w3.org/2000/svg" width="2000" height="2000" viewBox="0 0 2000 2000"><path d="M1866.531 1669.5c-34.667 41.983-76.565 71.445-117.436 101.277-186.213 135.925-397.804 213.209-635.253 225.932-468.43 25.103-874.062-232.407-1045.425-639.116C-85.056 993.339 62.365 561.55 212.304 428.24c10.405 3.774 6.212 10.694 4.471 17.23-7.395 27.757-19.728 53.851-32.91 79.482C91.9 703.8 71.803 891.633 105.658 1084.803c36.1 205.988 133.126 385.356 292.92 533.723 199.378 185.12 443.356 277.577 724.838 288.702 218.578 8.636 420.903-39.109 605.155-148.96 38.55-22.983 74.027-49.677 108.413-77.674 6.342-5.163 10.711-14.404 29.548-11.093" style="fill:#15479c;fill-opacity:1;fill-rule:nonzero;stroke:none;stroke-width:2.72575"/><path d="M960.677 1793.557C649.982 1733.99 416.15 1575.85 269.21 1316.273 79.86 981.786 147.228 555.915 433.45 286.26 647.393 84.7 910.861-8.943 1217.721 9.392 706.45 73.653 374.69 316.364 285.536 802.55c-49.765 489.867 197.72 806.673 675.141 991.008" style="fill:#15479c;fill-opacity:1;fill-rule:nonzero;stroke:none;stroke-width:2.72575"/><path d="m1821.58 618.688 121.69 79.183 57.266 702.746s-443.813-122.074-730.144 207.857c0 0 132.428-306.835 608.453-306.835zm-1181.118 6.598-121.69 79.184-57.266 702.746s443.813-122.074 730.144 207.857c0 0-132.428-306.836-608.453-306.836z" style="fill:#ea6390;fill-opacity:1;fill-rule:nonzero;stroke:none;stroke-width:2.72575"/><path d="M1273.744 855.989c-1.042 10.272 1.774 16.063 11.25 21.567 33.745 19.594 67.015 39.894 100.206 60.283 7.152 4.394 12.637 5.229 20.415.62 34.892-20.672 72.406-11.177 93.145 22.951 18.522 30.476 5.42 69.291-29.792 84.132-18.831 7.935-39.079 7.066-58.146-.675-7.611-3.09-12.94-2.65-19.504 2.06-29.27 21.012-58.767 41.765-88.54 62.165-8.165 5.592-11.245 11.276-7.989 20.583 5.065 14.477 6.643 29.554 4.832 44.706-.843 7.063 2.027 10.651 8.898 13.47 29.52 12.106 58.883 24.542 88.18 37.104 6.517 2.795 11.727 2.392 17.737-1.424 20.268-12.87 43.593-11.949 63.316 1.924 16.69 11.737 23.717 33.935 17.031 53.811a50.8 50.8 0 0 1-4.85 10.41c149.446-80.829 299.068-93.045 299.068-93.045l-85.9-745.637c-292.015 44.864-434.019 295.787-458.014 342.302 20.608 12.8 31.518 34.51 28.657 62.693m-32.354 690.367c.103-.227.217-.447.319-.675-.103-.228-.216-.447-.318-.675z" style="fill:#ea6390;fill-opacity:1;fill-rule:nonzero;stroke:none;stroke-width:2.72575"/><path d="M1259.82 1088.455c5.215 4.415 9.596 3.845 14.732.197 32.858-23.341 65.794-46.591 98.69-69.888 2.841-2.012 6.268-4.014 4.099-8.055-5.261-9.793-3.518-20.172-3.07-30.391.344-7.773-2.796-12.942-10.1-17.223-31.945-18.727-63.841-37.552-95.17-57.138-9.797-6.123-18.107-10.193-27.243-3.088v175.152a58.3 58.3 0 0 1 18.062 10.434m131.753 183.553c-2.263-11.565-7.677-17.717-19.237-22.198-25.347-9.824-50.324-20.549-74.921-31.883-9.468-4.365-14.48-3.533-21.767 3.975-10.263 10.57-21.616 18.393-33.89 23.546v300.128c48.426-106.652 126.501-181.035 208.696-232.816-1.561.15-3.148.257-4.766.304-29.535.845-48.59-12.805-54.115-41.056m-139.811-110.502c-.013-10.026-3.776-19.395-10.005-27.066v54.722c6.257-7.764 10.014-17.32 10.005-27.656m-10.004 384.281v-.21l-.049.105q.022.051.05.104m-3.376-639.84c-2.43 2.586-6.666 4.368-10.405 5.14-7.123 1.466-8.196 5.436-8.133 11.282.255 23.543.107 47.09.107 70.636 0 23.914.188 47.829-.125 71.738-.085 6.33 2.064 9.306 9.088 10.206a61 61 0 0 1 12.475 2.942V903.17c-.991.8-1.99 1.695-3.007 2.776m-37.281 209.35c-27.732-.069-50.245 20.51-50.48 46.138-.233 25.467 22.15 46.466 49.852 46.77 16.626.18 31.51-7.203 40.916-18.595v-55.611c-9.334-11.225-24.032-18.662-40.288-18.702m-37.264-210.653c-10.92-4.065-17.662-5.551-27.752.871-61.964 39.441-124.385 78.27-186.687 117.258-24.09 15.074-23.626 14.946-18.851 42.218 1.663 9.487 6.291 13.784 15.884 16.424a11732 11732 0 0 1 149.661 42.268c9.048 2.622 13.77.406 18.408-6.799 13.823-21.47 34.049-35.748 60.304-42.176 7.052-1.724 9.615-4.802 9.513-11.507-.352-23.15-.136-46.306-.136-69.46 0-18.009-.996-36.08.295-54.008 1.178-16.365-1.476-27.958-20.64-35.09m-316.638 128.937c-20.277-.34-37.237 15.864-37.157 35.505.08 20.248 16.778 36.748 37.404 36.96 20 .204 37.069-16.233 37.142-35.772.077-20.256-16.313-36.34-37.39-36.693" style="fill:#ea6390;fill-opacity:1;fill-rule:nonzero;stroke:none;stroke-width:2.72575"/><path d="M1176.965 1249.679c-36.51-8.283-60.885-29.324-71.512-63.068-.556-1.76-1.536-3.595-1.388-5.328 1.726-20.394-11.447-26.714-30.466-31.524-46.522-11.767-92.506-25.375-138.54-38.727-9.216-2.672-14.238-1.12-19.623 6.532-16.682 23.692-54.544 36.084-86.965 29.52-32.478-6.574-59.16-32.584-64.707-61.265-11.026-57.022 35.303-91.768 78.005-94.304 16.117-.958 30.843 2.405 44.516 10.11 18.746 10.564 18.484 10.237 36.728-1.27 54.316-34.259 108.796-68.301 163.34-102.255 12.846-7.997 23.892-18.465 38.553-23.995 3.591-1.353 3.907-4.36 3.932-7.38.046-4.779.014-9.557.014-14.336-5.47-41.19 35.036-74.316 73.082-71.793 12.713.843 24.094 3.523 33.875 7.825-29.64-55.816-171.727-294.36-455.758-337.996l-85.9 745.637s403.761 32.948 547.242 348.945v-299.413c-19.354 8.029-41.004 9.398-64.426 4.085" style="fill:#ea6390;fill-opacity:1;fill-rule:nonzero;stroke:none;stroke-width:2.72575"/><path d="M1241.39 1245.593v299.414c.103.228.217.447.319.675l.048-.104V1245.45c-.12.05-.244.094-.367.144m0-167.705q.184.064.367.133V902.868c-.123.096-.244.201-.366.3zm0 111.721c.123-.15.248-.299.367-.448v-54.722q-.181-.222-.366-.445z" style="fill:#ea6390;fill-opacity:1;fill-rule:nonzero;stroke:none;stroke-width:2.72575"/></svg>